<?xml version="1.0" encoding="UTF-8" standalone="no"?>
<!-- Created with Inkscape (http://www.inkscape.org/) -->

<svg
   width="200mm"
   height="200mm"
   viewBox="0 0 200 200"
   version="1.1"
   id="svg1"
   xml:space="preserve"
   inkscape:version="1.4.3 (0d15f75, 2025-12-25)"
   sodipodi:docname="výkres - kopie.svg"
   inkscape:export-filename="výkres-out.svg"
   inkscape:export-xdpi="96"
   inkscape:export-ydpi="96"
   xmlns:inkscape="http://www.inkscape.org/namespaces/inkscape"
   xmlns:sodipodi="http://sodipodi.sourceforge.net/DTD/sodipodi-0.dtd"
   xmlns:xlink="http://www.w3.org/1999/xlink"
   xmlns="http://www.w3.org/2000/svg"
   xmlns:svg="http://www.w3.org/2000/svg"><sodipodi:namedview
     id="namedview1"
     pagecolor="#ffffff"
     bordercolor="#000000"
     borderopacity="0.25"
     inkscape:showpageshadow="2"
     inkscape:pageopacity="0.0"
     inkscape:pagecheckerboard="0"
     inkscape:deskcolor="#d1d1d1"
     inkscape:document-units="mm"
     inkscape:zoom="0.22627417"
     inkscape:cx="570.10484"
     inkscape:cy="872.83494"
     inkscape:window-width="1920"
     inkscape:window-height="1001"
     inkscape:window-x="2391"
     inkscape:window-y="59"
     inkscape:window-maximized="1"
     inkscape:current-layer="svg1"
     inkscape:export-bgcolor="#ffffff00"><inkscape:page
       x="0"
       y="0"
       width="200"
       height="200"
       id="page2"
       margin="0"
       bleed="0" /></sodipodi:namedview><defs
     id="defs1"><linearGradient
       id="linearGradient7856"
       inkscape:collect="always"><stop
         style="stop-color:#8e81e6;stop-opacity:1;"
         offset="0"
         id="stop7857" /><stop
         style="stop-color:#43abf6;stop-opacity:1;"
         offset="1"
         id="stop7858" /></linearGradient><linearGradient
       id="linearGradient7853"
       inkscape:collect="always"><stop
         style="stop-color:#f1606f;stop-opacity:1;"
         offset="0"
         id="stop7854" /><stop
         style="stop-color:#b777e4;stop-opacity:1;"
         offset="0.4962779"
         id="stop7856" /><stop
         style="stop-color:#8e81e6;stop-opacity:1;"
         offset="1"
         id="stop7855" /></linearGradient><linearGradient
       id="linearGradient7850"><stop
         style="stop-color:#f6673a;stop-opacity:1;"
         offset="0"
         id="stop7852" /><stop
         style="stop-color:#f1606f;stop-opacity:1;"
         offset="1"
         id="stop7853" /></linearGradient><linearGradient
       inkscape:collect="always"
       xlink:href="#linearGradient7853"
       id="linearGradient11"
       gradientUnits="userSpaceOnUse"
       x1="-1022.9337"
       y1="-606.55505"
       x2="-999.11853"
       y2="-568.44287" /><linearGradient
       inkscape:collect="always"
       xlink:href="#linearGradient7850"
       id="linearGradient12"
       gradientUnits="userSpaceOnUse"
       x1="-1016.229"
       y1="-654.48889"
       x2="-1016.229"
       y2="-619.73254" /><linearGradient
       inkscape:collect="always"
       xlink:href="#linearGradient7856"
       id="linearGradient13"
       gradientUnits="userSpaceOnUse"
       x1="-1055.554"
       y1="-634.01404"
       x2="-1015.751"
       y2="-620.30872" /></defs><g
     id="g13"
     style="fill:none"
     transform="translate(1742.787,-68.789477)"><path
       id="rect7850-9-2"
       style="fill:#1c2332;fill-opacity:1;stroke-width:0.186223"
       d="m -1699.1852,68.789477 h 112.7962 c 24.1555,0 43.602,19.120227 43.602,42.870463 v 114.25907 c 0,23.75024 -19.4465,42.87047 -43.602,42.87047 h -112.7962 c -24.1554,0 -43.6018,-19.12023 -43.6018,-42.87047 V 111.65994 c 0,-23.750236 19.4464,-42.870463 43.6018,-42.870463 z"
       inkscape:label="background-square"
       inkscape:export-filename="gitwitan-red.svg"
       inkscape:export-xdpi="96"
       inkscape:export-ydpi="96" /><g
       id="g7847-4-7-4"
       inkscape:label="g"
       transform="translate(-903.81663,393.69997)"
       inkscape:export-filename="gitwitan-red.svg"
       inkscape:export-xdpi="96"
       inkscape:export-ydpi="96"
       style="fill:#fafafa;fill-opacity:1"><path
         style="fill:#fafafa;fill-opacity:1"
         d="m -2759.6158,-565.5947 c 24.3026,-28.21354 30.7319,-62.81812 18.1905,-97.90731 l -3.4331,-9.60538 2.1792,-0.88616 c 1.1986,-0.48739 6.6792,-2.1049 12.1792,-3.59447 44.1163,-11.94807 80.685,-44.48939 97.4168,-86.68801 4.059,-10.2371 3.9991,-11.3756 -0.6668,-12.67139 -2.4366,-0.67667 -28.6263,-1.04338 -74.7762,-1.047 -43.9443,-0.003 -74.2573,-0.40931 -79.5,-1.06441 -9.1907,-1.14841 -13.104,-2.88473 -16.3693,-7.26309 -2.0173,-2.70502 -2.1316,-4.32063 -2.7601,-39 -0.368,-20.31062 -0.2654,-37.73404 0.2341,-39.72571 2.0419,-8.14259 9.4606,-11.43307 29.1664,-12.93634 14.6288,-1.11597 152.3109,-1.18788 218.7551,-0.11425 36.7208,0.59334 41.9806,0.87688 45.6728,2.4621 2.2951,0.98534 4.5108,2.54406 4.9239,3.46383 1.2532,2.79044 1.6824,57.05603 0.5492,69.45348 -4.261,46.62053 -25.2278,99.63753 -55.3688,140.00613 -10.9996,14.73219 -37.1204,41.14673 -50.7771,51.34824 -43.6238,32.5868 -90.2651,49.7855 -145.7063,53.72826 l -7.2063,0.51249 z"
         id="path7832-8-2-8"
         inkscape:label="g-low"
         transform="scale(0.26458333)" /><path
         style="fill:#fafafa;fill-opacity:1"
         d="m -2638,-954.87222 c -18.3211,-0.58983 -23.9452,-1.5059 -24.0231,-3.91296 -0.013,-0.39315 -2.8515,-3.95418 -6.3083,-7.91339 -48.9585,-56.07423 -134.6291,-71.40433 -202.5969,-36.25303 -6.3644,3.29153 -15.5148,8.90217 -20.3341,12.4681 -4.8194,3.56592 -8.8694,6.48352 -9,6.48354 -0.1307,2e-5 -0.2631,-7.31248 -0.2943,-16.25004 -0.047,-13.465 -0.4271,-17.584 -2.2177,-24.0338 -4.3706,-15.7424 -13.0356,-31.0949 -24.4172,-43.2619 -6.156,-6.5807 -19.1397,-15.9504 -26.0584,-18.805 -6.6623,-2.7488 -4.9619,-4.7785 13.75,-16.4126 35.9486,-22.3509 79.1393,-36.9308 121.9237,-41.1575 13.7892,-1.3623 41.2032,-1.3911 54.7204,-0.057 86.3291,8.5171 162.5175,53.1235 208.341,121.9783 11.0047,16.5358 25.6559,47.16788 30.9697,64.75 l 0.68,2.25 -20.3174,0.002 c -11.1746,10e-4 -32.6924,0.17107 -47.8174,0.37778 -15.125,0.20671 -36.275,0.0933 -47,-0.25194 z"
         id="path7831-4-2-6"
         inkscape:label="g-top"
         transform="scale(0.26458333)" /></g><g
       id="g7846-9-8-5"
       inkscape:export-filename="g7846.svg"
       inkscape:export-xdpi="96"
       inkscape:export-ydpi="96"
       style="fill:none"
       transform="translate(-679.63705,770.75392)"
       inkscape:label="branch"><path
         d="m -1011.6773,-615.14896 h -9.6355 v 0.47439 c 6e-4,5.83902 -0.068,10.96191 -0.1525,11.38432 -0.1298,0.64914 -0.5087,0.94825 -2.4474,1.9327 -4.4238,2.24638 -7.9217,6.63633 -9.1798,11.52074 -0.5315,2.06334 -0.54,5.88647 -0.018,8.13698 0.8475,3.65441 3.4456,7.70252 6.3609,9.91102 5.2745,3.99577 12.4047,4.56436 18.5084,1.47639 l 1.296,-0.65577 6.0638,6.04408 c 1.58328,1.57815 3.38208,3.3909 5.03888,5.07514 l 7.2869,-7.2869 -1.881,-1.87585 c -10.88738,-10.85718 -9.94068,-9.52391 -9.0491,-12.74703 0.5138,-1.85652 0.5082,-5.73392 -0.011,-7.94576 -1.25118,-5.32731 -5.12298,-10.01901 -10.06698,-12.19823 l -1.8806,-0.82837 -0.1906,-9.96218 c -0.016,-0.83866 -0.03,-1.66186 -0.042,-2.45567 z m -4.3754,20.70003 c 3.2337,0.14275 6.3927,2.12961 7.7758,5.22707 0.8411,1.88393 0.7948,5.0042 -0.1034,6.93757 -0.9324,2.00692 -2.0386,3.18917 -3.9259,4.19509 -2.852,1.52011 -6.2261,1.31826 -8.9172,-0.5333 -2.3801,-1.63749 -3.6122,-4.08923 -3.6406,-7.24556 -0.016,-1.80562 0.09,-2.33853 0.7219,-3.62561 0.9358,-1.90632 2.9159,-3.70943 4.8937,-4.45606 1.0315,-0.38937 2.1178,-0.54678 3.1957,-0.4992 z"
         style="fill:url(#linearGradient11);stroke-width:0.264583"
         id="path7845-5-9-2-0"
         sodipodi:nodetypes="ccssssssscsccssccccccssssscsss"
         inkscape:label="branch-mid" /><path
         d="m -1011.6953,-615.15029 c -0.047,-3.75517 -0.042,-6.60413 0.022,-6.90604 0.084,-0.39727 0.2134,-1.01467 0.2873,-1.37201 0.1051,-0.50819 0.6094,-0.87446 2.3151,-1.68 4.8587,-2.29457 7.7205,-5.43156 9.32858,-10.22521 2.6975,-8.04073 -0.92648,-17.65725 -8.17778,-21.69997 -4.8354,-2.69581 -11.6734,-2.71891 -16.6909,-0.0563 -3.4918,1.85295 -6.7758,5.87335 -8.2507,10.10171 -0.6701,1.92122 -0.7387,2.45869 -0.7447,5.82083 -0.01,3.36217 0.06,3.89997 0.7214,5.82445 1.4921,4.34252 4.6201,7.83596 9.0212,10.07536 l 2.5513,1.29811 v 8.8191 z m -4.7217,-35.01285 c 2.0611,0 2.5803,0.0975 3.8602,0.72605 1.8628,0.91482 3.4987,2.55508 4.4204,4.43177 0.9721,1.97935 1.0042,5.2375 0.072,7.34633 -0.9174,2.07621 -3.2524,4.13058 -5.4756,4.81727 -4.5496,1.40523 -8.7102,-0.31105 -10.7373,-4.42867 -0.7808,-1.58602 -0.8706,-2.00249 -0.8656,-4.02352 0.01,-2.76444 0.7791,-4.66531 2.622,-6.45646 1.9319,-1.87754 3.2856,-2.41277 6.1035,-2.41277 z"
         style="fill:url(#linearGradient12);fill-opacity:1;stroke-width:0.264583"
         id="path7843-0-2-8-9"
         inkscape:label="branch-top" /><path
         style="fill:url(#linearGradient13);stroke-width:0.264583"
         d="m -1033.6069,-606.61591 c -2.2702,-0.30786 -3.6717,-0.76106 -5.8575,-1.89414 -5.0498,-2.61769 -8.5686,-7.70242 -9.291,-13.4255 -0.2937,-2.32718 -0.1769,-3.37227 0.9103,-8.1461 l 0.312,-1.36996 -3.4703,-3.65712 c -1.9087,-2.01142 -5.6974,-5.44275 -5.6974,-5.44275 l 7.2959,-7.28084 9.0523,8.648 3.1301,-1.07161 c 2.7853,-0.95359 3.3972,-1.07047 5.5562,-1.0613 9.1435,0.0388 16.291,6.88058 17.014,16.28621 0.2917,3.79537 -0.7407,7.59521 -3.0056,11.06233 -3.297,5.04689 -10.0368,8.15432 -15.9478,7.35275 z m 5.5834,-9.42923 c 5.482,-2.46018 6.705,-9.86875 2.3299,-14.11457 -1.9934,-1.93453 -4.5198,-2.72539 -7.4548,-2.33365 -1.8972,0.25322 -3.3396,0.97425 -4.7295,2.36412 -1.7307,1.73071 -2.2113,3.07384 -2.2113,6.18005 0,2.53815 0.039,2.71583 0.9469,4.36563 2.2353,4.05981 6.7532,5.49758 11.1188,3.53842 z"
         id="path7830-0-5-9-0"
         sodipodi:nodetypes="sssscscccsssssssssssss"
         inkscape:label="branch-low"
         transform="translate(60.854169,80.697922)" /></g></g></svg>
